    <svg
      viewBox="0 0 180 180"
      fill="none"
      xmlns="http://www.w3.org/2000/svg"
    >
      <path
        d="M90 32.655C94.0308 28.0853 99.3576 24.8513 105.272 23.3835C111.186 21.9156 117.406 22.2834 123.106 24.438C128.806 26.5926 133.714 30.4318 137.179 35.4447C140.643 40.4576 142.498 46.4066 142.498 52.5C142.498 58.5934 140.643 64.5424 137.179 69.5553C133.714 74.5682 128.806 78.4074 123.106 80.562C117.406 82.7166 111.186 83.0844 105.272 81.6166C99.3576 80.1487 94.0308 76.9147 90 72.345M112.5 157.5H157.5V150C157.501 142.1 155.423 134.34 151.474 127.498C147.524 120.656 141.844 114.974 135.003 111.024C128.162 107.074 120.401 104.994 112.502 104.994C104.602 104.993 96.8413 107.073 90 111.023M112.5 157.5H22.5V150C22.5 138.065 27.2411 126.619 35.6802 118.18C44.1193 109.741 55.5653 105 67.5 105C79.4347 105 90.8807 109.741 99.3198 118.18C107.759 126.619 112.5 138.065 112.5 150V157.5ZM97.5 52.5C97.5 60.4565 94.3393 68.0871 88.7132 73.7132C83.0871 79.3393 75.4565 82.5 67.5 82.5C59.5435 82.5 51.9129 79.3393 46.2868 73.7132C40.6607 68.0871 37.5 60.4565 37.5 52.5C37.5 44.5435 40.6607 36.9129 46.2868 31.2868C51.9129 25.6607 59.5435 22.5 67.5 22.5C75.4565 22.5 83.0871 25.6607 88.7132 31.2868C94.3393 36.9129 97.5 44.5435 97.5 52.5V52.5Z"
        stroke="#0EA5E9"
        stroke-width="12"
        stroke-linecap="round"
        stroke-linejoin="round"
      />
    </svg>
