<?xml version="1.0" standalone="no"?>
<!DOCTYPE svg PUBLIC "-//W3C//DTD SVG 20010904//EN"
 "http://www.w3.org/TR/2001/REC-SVG-20010904/DTD/svg10.dtd">
<svg version="1.0" xmlns="http://www.w3.org/2000/svg"
 width="700.000000pt" height="700.000000pt" viewBox="0 0 700.000000 700.000000"
 preserveAspectRatio="xMidYMid meet">
<metadata>
Created by potrace 1.14, written by Peter Selinger 2001-2017
</metadata>
<g transform="translate(0.000000,700.000000) scale(0.100000,-0.100000)"
fill="#000000" stroke="none">
<path d="M3316 6283 c-1 -1 -69 -5 -151 -8 -83 -3 -193 -7 -245 -10 -52 -3
-158 -7 -235 -10 -446 -17 -483 -21 -612 -64 -192 -65 -347 -179 -455 -333
-76 -109 -97 -176 -143 -468 -2 -14 -22 -135 -44 -270 -22 -135 -43 -263 -46
-285 -9 -52 -11 -66 -46 -280 -17 -99 -32 -193 -35 -210 -2 -16 -6 -41 -9 -55
-2 -14 -6 -41 -9 -60 -3 -19 -17 -105 -31 -190 -15 -85 -28 -166 -30 -180 -2
-14 -8 -52 -14 -85 -5 -33 -13 -78 -16 -100 -3 -23 -8 -52 -10 -65 -23 -111
-25 -390 -4 -486 7 -32 14 -64 15 -71 7 -37 50 -152 79 -213 19 -38 76 -131
128 -207 51 -76 116 -177 145 -224 28 -48 80 -124 114 -170 167 -223 185 -263
388 -884 34 -104 68 -204 76 -222 8 -17 14 -35 14 -39 0 -4 23 -71 51 -148
106 -294 216 -454 312 -458 45 -1 407 2 621 5 l128 2 28 33 c26 32 108 187
130 247 21 56 65 232 136 540 3 11 9 45 15 75 6 30 26 111 46 180 19 69 36
132 38 140 5 20 103 358 116 395 45 140 88 324 124 540 3 17 10 53 15 80 14
72 18 101 30 186 6 41 13 86 15 100 3 13 8 44 11 69 3 25 7 56 9 69 4 24 11
71 20 141 3 19 7 112 10 205 6 212 -5 273 -87 490 -76 204 -144 341 -264 541
-53 87 -108 179 -122 204 -14 25 -62 101 -107 170 -103 158 -147 237 -132 237
39 2 249 15 282 18 22 2 83 6 135 10 52 3 118 7 145 9 28 3 93 7 145 11 52 3
120 8 150 10 30 2 91 7 135 10 44 3 105 7 135 10 60 4 178 13 280 20 67 5 158
12 270 21 35 3 67 7 70 9 3 2 46 6 95 10 50 4 104 9 120 10 17 2 54 3 82 4
l53 1 -4 133 c-2 72 -6 139 -8 147 -3 8 -9 29 -13 45 -37 136 -244 301 -513
409 -205 83 -465 157 -632 181 -14 2 -59 9 -100 15 -41 6 -100 13 -130 16 -30
2 -66 6 -80 9 -14 2 -59 7 -100 10 -41 4 -95 8 -120 10 -123 11 -359 22 -364
18z"/>
</g>
</svg>
